<svg width="34" height="34" viewBox="0 0 34 34" fill="none" xmlns="http://www.w3.org/2000/svg">
<g clip-path="url(#clip0_7023_80955)">
<path d="M30.068 31.1835C30.068 31.1835 30.1707 32.6938 27.4413 32.0857C24.7119 31.4783 23.8191 30.8435 21.5521 30.6467C20.7972 30.581 20.691 30.0674 21.1466 29.646C21.1488 29.6445 21.1501 29.6432 21.1514 29.6417C21.2003 29.5968 21.2554 29.5533 21.3173 29.5111C21.3186 29.5103 21.3193 29.5096 21.3193 29.5096C21.7626 29.2075 22.5287 28.9953 23.5793 29.1144C23.5793 29.1144 24.5774 28.6241 26.4359 28.4573C28.1321 28.3042 30.3476 28.5421 31.0676 29.3818C31.1363 29.4619 31.1916 29.5477 31.2316 29.6392C31.5798 30.4397 30.9381 31.0266 30.068 31.1833V31.1835Z" fill="#FFAA00"/>
<path d="M30.068 31.1835C30.068 31.1835 30.1707 32.6938 27.4413 32.0857C24.7119 31.4783 23.8191 30.8435 21.5521 30.6467C20.7972 30.581 20.691 30.0675 21.1466 29.646C21.1488 29.6445 21.1501 29.6432 21.1514 29.6417C21.2464 29.5668 21.3063 29.5198 21.3173 29.5111C21.3186 29.5104 21.3193 29.5096 21.3193 29.5096C21.3193 29.5096 21.2539 30.2303 22.3997 30.1894C23.5455 30.1485 25.6417 30.8589 27.3072 31.1301C28.9718 31.4012 29.8174 31.0218 29.6234 30.4514L29.6056 30.1757C29.6056 30.1757 31.0944 30.3606 31.0678 29.3818C31.1365 29.462 31.1918 29.5477 31.2318 29.6393C31.5801 30.4397 30.9384 31.0267 30.0682 31.1833L30.068 31.1835Z" fill="#E06000"/>
<path d="M24.8082 29.3055C26.6778 29.0996 30.4024 28.9469 30.5613 31.183C30.5714 31.4162 30.3588 31.6123 30.086 31.6209C29.8005 31.6311 29.5621 31.4273 29.5738 31.1832C29.6139 30.3891 28.6571 30.0763 27.8561 29.9044C26.8955 29.7158 25.8542 29.6828 24.8673 29.7307C24.5464 29.7509 24.4889 29.3511 24.8082 29.3055Z" fill="#491212"/>
<path d="M28.5893 32.6516C28.2127 32.6516 27.7885 32.5992 27.3175 32.4945C26.1768 32.2406 25.3512 31.9822 24.6228 31.7543C23.5933 31.4321 22.7802 31.1777 21.5027 31.0669C20.822 31.0078 20.5608 30.6872 20.4656 30.501C20.3027 30.1826 20.3769 29.81 20.6688 29.4782C21.0871 29.0031 22.0422 28.5545 23.4884 28.6806C23.8514 28.5306 24.8418 28.1764 26.3848 28.0372C27.9419 27.8968 31.0553 28.0203 31.6953 29.4923C31.8888 29.9374 31.8625 30.3719 31.6193 30.7491C31.3986 31.0915 31.0086 31.3593 30.5218 31.5105C30.4621 31.7421 30.3171 32.0445 29.9714 32.2872C29.6255 32.5298 29.1629 32.6514 28.589 32.6514L28.5893 32.6516ZM23.0076 29.5037C22.2193 29.5037 21.702 29.7336 21.4806 29.9616C21.3781 30.067 21.364 30.146 21.3706 30.1631C21.3776 30.1721 21.4391 30.2126 21.6024 30.2267C23.0032 30.3481 23.9111 30.6324 24.9621 30.9613C25.6696 31.1827 26.4715 31.4338 27.5661 31.6773C28.4071 31.8646 29.0389 31.8494 29.3449 31.6346C29.5779 31.4709 29.5753 31.2103 29.5751 31.2079C29.5608 30.9992 29.7272 30.8131 29.9664 30.7701C30.3289 30.7048 30.6234 30.5448 30.7544 30.3417C30.856 30.1841 30.8611 29.9974 30.7696 29.7867C30.4452 29.0408 28.2939 28.7138 26.4884 28.877C24.7742 29.0316 23.8334 29.4773 23.8242 29.4818C23.7309 29.5268 23.6212 29.5452 23.5149 29.5334C23.335 29.5129 23.1658 29.5037 23.0076 29.5037Z" fill="#491212"/>
<path d="M4.30761 16.4158C4.30761 16.4158 6.22326 6.25764 17.0463 5.28361C27.3538 4.35593 30.6692 11.8461 31.2317 14.6634C31.2317 14.6634 35.009 18.2473 32.0353 24.5244C29.2434 30.4177 17.0976 33.5263 8.44659 29.369C1.45377 26.0084 1.43358 19.8655 1.68288 17.6343C1.7417 17.1078 2.18786 16.6717 2.79181 16.5565C3.23599 16.4719 3.77959 16.4008 4.30783 16.4158H4.30761Z" fill="#FFE529"/>
<path d="M31.4391 23.6437C31.3548 23.8482 31.2624 24.0559 31.1626 24.2666C28.6985 29.4683 18.9473 32.5 10.7446 30.2812C9.95849 30.0296 9.1895 29.7256 8.44664 29.3689C1.45403 26.0083 1.43384 19.8658 1.68271 17.6342C1.74152 17.1073 2.1879 16.6716 2.79141 16.5562C2.87481 16.5403 2.96193 16.5256 3.05147 16.511C3.29134 19.3364 4.62806 23.3907 9.84525 25.8981C17.1174 29.3931 26.8575 27.7539 31.4391 23.6435V23.6437Z" fill="#F7A521"/>
<path d="M17.3368 31.7039C14.0921 31.7039 10.9174 31.0403 8.20536 29.7369C5.08246 28.2362 2.95437 26.0397 1.8799 23.2084C0.995926 20.8787 1.06944 18.6909 1.1919 17.5941C1.27135 16.882 1.87135 16.2996 2.68488 16.1444C3.11568 16.0623 3.52277 16.0131 3.90024 15.9971C4.10017 15.1957 4.71553 13.1479 6.19336 11.0007C8.6728 7.39863 12.408 5.27644 16.9951 4.86364C21.5511 4.45327 25.4133 5.63802 28.1634 8.28897C30.2151 10.2669 31.3264 12.76 31.6955 14.4791C31.9644 14.7659 32.7274 15.6667 33.2232 17.1218C33.7674 18.7194 34.0828 21.3279 32.4935 24.6829C31.2553 27.2963 28.2088 29.4951 24.1348 30.7151C21.9246 31.3771 19.6133 31.7039 17.3364 31.7039H17.3368ZM4.16227 16.8359C3.78612 16.8359 3.36213 16.8804 2.89973 16.9685C2.50492 17.0438 2.2137 17.3275 2.17486 17.6744C1.9137 20.0132 2.02563 25.7988 8.68926 29.001C13.0604 31.1016 18.7128 31.4448 23.8086 29.9184C27.6149 28.7783 30.4468 26.7546 31.5786 24.366C34.4037 18.4027 30.9015 14.98 30.8658 14.9462C30.8032 14.8867 30.7615 14.8133 30.7457 14.7345C30.4249 13.1278 29.384 10.7378 27.4247 8.84926C24.859 6.37619 21.3849 5.31791 17.0987 5.70332C12.7745 6.09248 9.39175 8.01896 7.04464 11.4289C5.28042 13.992 4.80046 16.4582 4.79585 16.4827C4.75635 16.6925 4.5404 16.8445 4.29197 16.8376C4.2494 16.8364 4.20617 16.8357 4.16249 16.8357L4.16227 16.8359Z" fill="#491212"/>
<path d="M5.83618 19.8685L1.48168 21.0559C1.03486 21.1777 0.764272 21.5636 0.846789 21.9584C1.15732 23.4445 2.25154 26.8584 5.83618 27.7598C10.4575 28.922 13.8732 25.7954 13.19 22.7375C12.5068 19.6796 10.1459 19.2244 8.18702 19.4306C8.18702 19.4306 6.87575 19.5852 5.83618 19.8687V19.8685Z" fill="#FFE529"/>
<path d="M7.3625 27.9959C6.87223 27.9685 6.36177 27.8921 5.83573 27.7595C2.25109 26.8581 1.15731 23.4446 0.84656 21.9583C0.81825 21.8226 0.832295 21.6888 0.880137 21.5659C1.53807 23.1184 2.82103 24.9398 5.29345 25.5617C8.71942 26.4229 11.48 24.9183 12.3868 22.8362C12.8689 25.3144 10.6812 27.8073 7.3625 27.9959Z" fill="#F7A521"/>
<path d="M5.90518 20.0536C4.49845 20.5871 3.05925 21.0331 1.60972 21.4555C1.4155 21.5191 1.29677 21.7084 1.3365 21.8818L1.34769 21.9323L1.39685 22.1415C2.0956 24.9525 3.98887 27.4777 7.65602 27.5346C10.7956 27.6402 13.4069 25.1925 12.6092 22.5308C12.4279 21.8096 12.0634 21.1005 11.4755 20.5856C10.5922 19.8485 9.42201 19.748 8.20665 19.6114C8.0866 19.5975 8.00233 19.5029 8.01879 19.4003C8.0302 19.3292 8.08704 19.2727 8.16078 19.2494C8.42018 19.1669 8.69011 19.1134 8.964 19.0798C9.97241 18.962 11.0085 19.2143 11.8181 19.7423C12.776 20.3799 13.3371 21.3551 13.6036 22.328C14.5306 25.1534 12.0946 28.0191 8.76341 28.4174C7.74315 28.5471 6.68755 28.4585 5.70043 28.2121C2.54067 27.4488 0.888362 24.6682 0.367587 22.0859C0.204968 21.4727 0.648274 20.8252 1.35822 20.6575C1.43064 20.6408 1.65427 20.5798 1.7313 20.5614C3.06188 20.2296 4.4008 19.9202 5.76692 19.6838C6.03422 19.6403 6.149 19.9598 5.90496 20.0536H5.90518Z" fill="#491212"/>
<path d="M15.924 16.4602C17.2477 16.4359 18.292 15.2685 18.2564 13.8527C18.2209 12.4369 17.119 11.3089 15.7952 11.3332C14.4715 11.3575 13.4273 12.5249 13.4628 13.9407C13.4984 15.3565 14.6003 16.4845 15.924 16.4602Z" fill="#491212"/>
<path d="M15.3381 14.3939C15.8225 14.385 16.2046 13.9579 16.1916 13.44C16.1786 12.9221 15.7754 12.5094 15.291 12.5183C14.8067 12.5272 14.4246 12.9543 14.4376 13.4722C14.4506 13.9901 14.8538 14.4028 15.3381 14.3939Z" fill="white"/>
<g opacity="0.35">
<path d="M17.3204 14.9843C17.4967 14.6291 17.3703 14.2435 17.0383 14.1231C16.7062 14.0026 16.2942 14.1929 16.1179 14.5481C15.9417 14.9032 16.068 15.2888 16.4001 15.4093C16.7321 15.5297 17.1442 15.3394 17.3204 14.9843Z" fill="white"/>
</g>
<path d="M26.2031 15.0224C27.4049 15.0003 28.3531 13.9405 28.3208 12.6551C28.2885 11.3698 27.2881 10.3457 26.0862 10.3678C24.8844 10.3898 23.9363 11.4497 23.9686 12.735C24.0009 14.0203 25.0013 15.0444 26.2031 15.0224Z" fill="#491212"/>
<path d="M25.6708 13.1466C26.1104 13.1386 26.4572 12.7508 26.4454 12.2805C26.4336 11.8103 26.0677 11.4356 25.628 11.4436C25.1884 11.4517 24.8416 11.8395 24.8534 12.3097C24.8652 12.78 25.2312 13.1547 25.6708 13.1466Z" fill="white"/>
<g opacity="0.35">
<path d="M27.4713 13.6826C27.6313 13.3601 27.5166 13.0101 27.2151 12.9007C26.9137 12.7913 26.5396 12.9641 26.3796 13.2865C26.2196 13.609 26.3342 13.959 26.6357 14.0684C26.9372 14.1777 27.3113 14.005 27.4713 13.6826Z" fill="white"/>
</g>
<path d="M19.5664 15.385C19.5664 15.385 21.2843 18.503 22.9419 18.4C24.5995 18.297 24.9914 15.385 24.9914 15.385H19.5664Z" fill="#E06000"/>
<path d="M22.8618 18.689C21.0681 18.689 19.4448 15.8381 19.2624 15.5071C19.2135 15.4183 19.2212 15.3142 19.2826 15.2314C19.3441 15.1485 19.4509 15.0984 19.5657 15.0984H24.9907C25.0864 15.0984 25.1775 15.1333 25.2409 15.1943C25.3046 15.2553 25.3346 15.3367 25.3237 15.4177C25.2802 15.7399 24.8459 18.5689 22.9654 18.6858C22.9307 18.6879 22.896 18.689 22.8615 18.689H22.8618ZM20.1104 15.6716C20.8057 16.78 21.9953 18.1734 22.9169 18.1139C23.9117 18.052 24.4245 16.5425 24.6025 15.6716H20.1104Z" fill="#491212"/>
<path d="M21.3047 15.8474C21.3047 15.8474 22.1586 17.3971 22.9824 17.3459C23.8063 17.2947 24.001 15.8474 24.001 15.8474H21.3047Z" fill="#8C1B1B"/>
<path d="M21.4462 15.9239C21.4759 15.8936 21.4827 15.8268 21.4592 15.791C21.4618 15.7951 21.4708 15.8071 21.4737 15.8117C21.7364 16.1601 22.6225 17.4522 23.1883 17.0486C23.5631 16.757 23.7056 16.2451 23.8362 15.8312L24.0016 15.9899C23.1398 15.9933 22.3125 15.9593 21.446 15.9237L21.4462 15.9239ZM21.1647 15.7713C22.0952 15.7347 23.0656 15.7017 24.0025 15.7051C24.1015 15.7045 24.1798 15.7807 24.1673 15.8644C24.1451 16.2175 24.076 16.559 23.9037 16.8988C23.7356 17.2717 23.2689 17.6687 22.7424 17.5417C21.967 17.3465 21.4862 16.5523 21.1833 15.97C21.1789 15.9578 21.1631 15.9291 21.1585 15.9165C21.132 15.8734 21.1357 15.8066 21.1647 15.7711V15.7713Z" fill="#491212"/>
<path d="M19.4829 15.1522C19.8814 14.5452 20.754 13.2999 21.6406 12.5883C21.954 12.3369 22.4219 12.2932 22.7925 12.4793C23.5246 12.8471 24.7584 13.6564 25.5213 15.1875C25.6064 15.3586 25.4941 15.5549 25.2834 15.6005C24.4681 15.7772 22.4179 16.0943 19.7188 15.5967C19.4853 15.5538 19.3661 15.3303 19.4829 15.1522Z" fill="#FFAA00"/>
<path d="M22.5938 16.1492C21.7412 16.1492 20.7451 16.0792 19.648 15.8769C19.431 15.837 19.2545 15.7148 19.1632 15.542C19.0724 15.3697 19.0823 15.1765 19.1905 15.0119C19.6309 14.3409 20.505 13.1064 21.4112 12.3793C21.8358 12.0386 22.4591 11.9793 22.9623 12.2321C23.6852 12.5951 25.0188 13.4472 25.8297 15.0751C25.909 15.2343 25.903 15.4142 25.8133 15.5692C25.724 15.7234 25.5607 15.8362 25.3658 15.8784C24.8867 15.9822 23.9112 16.1492 22.5938 16.1492ZM22.3004 12.6507C22.1446 12.6507 21.9908 12.7006 21.8703 12.7972C20.9984 13.4969 20.1148 14.7753 19.7755 15.2924C19.774 15.2949 19.7711 15.2992 19.7749 15.3063C19.7793 15.3144 19.7863 15.3157 19.7896 15.3164C22.4428 15.8056 24.4579 15.4836 25.201 15.3226C25.2034 15.3221 25.2087 15.3209 25.2124 15.3146C25.2166 15.3073 25.2139 15.3018 25.2128 15.2997C24.4772 13.823 23.2744 13.0537 22.6228 12.7263C22.5216 12.6754 22.4106 12.6507 22.3004 12.6507Z" fill="#491212"/>
<path d="M21.9905 13.3405C22.1204 13.3833 22.3089 13.4887 22.3063 13.7418L21.5176 13.4699C21.5878 13.4095 21.6677 13.3607 21.7658 13.3332C21.8389 13.3127 21.9187 13.317 21.9905 13.3405Z" fill="#E06000"/>
<path d="M16.2563 32.3118C16.2563 32.3118 16.1922 33.8236 13.5418 32.9985C10.8914 32.1742 10.0726 31.4702 7.83719 31.0917C7.09278 30.9656 7.04362 30.4457 7.54355 30.0629C7.54575 30.0616 7.54728 30.0603 7.54882 30.0592C7.60237 30.0185 7.66206 29.9796 7.72834 29.9426C7.72987 29.9421 7.73053 29.9413 7.73053 29.9413C8.20522 29.6764 8.99132 29.5267 10.0239 29.7299C10.0239 29.7299 11.0716 29.3221 12.9403 29.3056C14.6459 29.2897 16.8253 29.7051 17.4497 30.5988C17.5094 30.6842 17.5548 30.7741 17.5847 30.8683C17.8432 31.6933 17.1398 32.2258 16.2561 32.3118H16.2563Z" fill="#FFAA00"/>
<path d="M16.2563 32.3118C16.2563 32.3118 16.1922 33.8236 13.5418 32.9986C10.8914 32.1743 10.0726 31.4703 7.83719 31.0918C7.09278 30.9657 7.04362 30.4458 7.54355 30.063C7.54575 30.0617 7.54728 30.0604 7.54882 30.0592C7.65174 29.9924 7.71648 29.9502 7.72834 29.9427C7.72987 29.9422 7.73053 29.9414 7.73053 29.9414C7.73053 29.9414 7.58591 30.6537 8.73126 30.7053C9.8764 30.7569 11.8853 31.6328 13.5133 32.0368C15.1405 32.4407 16.0243 32.1311 15.8939 31.5476L15.9067 31.2718C15.9067 31.2718 17.3685 31.5755 17.4497 30.5991C17.5094 30.6845 17.5548 30.7743 17.5847 30.8685C17.8432 31.6936 17.1398 32.2261 16.2561 32.312L16.2563 32.3118Z" fill="#E06000"/>
<path d="M11.2261 30.019C13.1099 29.9644 16.835 30.1124 16.7468 32.3513C16.7312 32.5843 16.4979 32.7624 16.2254 32.7491C15.9399 32.7363 15.7252 32.514 15.7636 32.2721C15.8911 31.4848 14.9729 31.0964 14.1943 30.8607C13.2587 30.5956 12.2257 30.479 11.238 30.4471C10.9165 30.4413 10.9031 30.0388 11.2261 30.0191V30.019Z" fill="#491212"/>
<path d="M14.9174 33.6665C14.4699 33.6665 13.9542 33.5761 13.3733 33.3954C12.2655 33.0509 11.4719 32.727 10.7718 32.4414C9.78251 32.0378 9.00102 31.719 7.74155 31.5059C7.07022 31.3924 6.8455 31.052 6.77132 30.8591C6.64425 30.529 6.75903 30.1639 7.08624 29.8573C7.55501 29.418 8.55574 29.0484 9.98112 29.2902C10.359 29.17 11.3841 28.8971 12.9357 28.8829C14.502 28.8701 17.5873 29.2424 18.0622 30.7593C18.206 31.2179 18.1318 31.6485 17.8483 32.0044C17.5908 32.3275 17.173 32.563 16.6718 32.6743C16.5868 32.9 16.4091 33.1894 16.0382 33.4031C15.7331 33.5789 15.3585 33.6667 14.9172 33.6667L14.9174 33.6665ZM9.10768 30.0584C8.48661 30.0584 8.05384 30.2228 7.84118 30.4039C7.7275 30.5005 7.7049 30.5782 7.70951 30.5956C7.71543 30.6052 7.77227 30.6504 7.93335 30.6778C9.31441 30.9114 10.187 31.2674 11.1974 31.6794C11.8772 31.957 12.648 32.2712 13.711 32.6021C14.5202 32.8537 15.1478 32.8912 15.4781 32.7075C15.7384 32.5628 15.7623 32.3011 15.7632 32.29C15.772 32.0812 15.9576 31.9157 16.2006 31.892C16.5688 31.8564 16.8796 31.7205 17.0323 31.529C17.1508 31.3802 17.1765 31.1946 17.1085 30.9777C16.8677 30.2091 14.7618 29.7109 12.9464 29.7273C11.2228 29.743 10.2372 30.1112 10.2276 30.1149C10.1297 30.1521 10.0184 30.1618 9.91419 30.1414C9.61836 30.083 9.34908 30.0584 9.10812 30.0584H9.10768Z" fill="#491212"/>
<path d="M21.9887 4.05566C21.8344 5.34323 20.6699 6.05476 19.3071 5.87894L18.3147 5.70256C18.3147 5.70256 19.3898 4.30935 17.4639 4.04684C15.5377 3.78377 13.9194 4.87507 13.9194 4.87507C13.9194 4.87507 13.8152 4.24893 14.0513 3.48693C14.2681 2.78741 14.7718 1.97381 15.9073 1.4261C18.2789 0.281882 21.214 0.75079 21.8524 2.80543C21.9955 3.26533 22.0341 3.68451 21.9887 4.05603V4.05566Z" fill="#FFE529"/>
<path d="M17.3945 3.87739C17.3945 3.87739 22.2007 5.20024 21.7284 3.03564C21.7284 3.03564 22.1155 5.34941 20.7351 5.7093C19.2621 6.09358 18.7176 5.73538 18.6007 5.05125C18.4835 4.36712 17.8629 4.01493 17.3945 3.87739Z" fill="#F7A521"/>
<g opacity="0.7">
<path d="M21.9884 4.0556C21.905 3.53904 21.44 2.07809 18.8567 1.71238C16.4455 1.37088 14.7265 2.79599 14.0508 3.48668C14.2676 2.78717 14.7713 1.97357 15.9067 1.42586C18.2784 0.281638 21.2135 0.750546 21.8519 2.80518C21.995 3.26508 22.0336 3.68427 21.9882 4.05579L21.9884 4.0556Z" fill="white"/>
</g>
<path d="M18.152 5.61143C18.2078 5.28682 18.3697 4.87345 18.1127 4.63665C17.8461 4.42181 17.2904 4.38822 16.9101 4.39348C15.9473 4.40717 15.003 4.73516 14.218 5.20032C13.94 5.40785 13.4729 5.2446 13.4387 4.93369C13.3349 4.24449 13.4328 3.55061 13.7205 2.89819C14.2836 1.5729 15.8029 0.719898 17.3734 0.440129C20.0508 -0.0529835 22.5067 1.18787 22.5208 3.67107C22.5403 4.38372 22.2715 5.15679 21.6397 5.66491C21.0219 6.17097 20.0422 6.32896 19.2783 6.03887C19.1012 5.97602 19.137 5.74635 19.3215 5.72139C19.6716 5.67017 19.9882 5.60018 20.2619 5.49135C21.4931 5.02469 21.6776 3.9043 21.3236 2.89556C20.6418 0.900406 17.5373 0.991598 15.8464 2.02042C15.0715 2.47675 14.5878 3.22168 14.4467 4.01595C14.3975 4.2792 14.3756 4.55053 14.3975 4.81679L13.6182 4.55015C13.6922 4.5008 13.7468 4.46816 13.8103 4.43007C14.8446 3.83863 16.1181 3.49976 17.3708 3.66244C18.265 3.73956 19.1664 4.23924 18.9473 5.10706C18.9105 5.31834 18.4937 6.03944 18.1935 5.77824C18.1437 5.73058 18.1353 5.66904 18.152 5.61143Z" fill="#491212"/>
</g>
<defs>
<clipPath id="clip0_7023_80955">
<rect width="33.3333" height="33.3333" fill="white" transform="translate(0.333984 0.333252)"/>
</clipPath>
</defs>
</svg>
