<svg width="204" height="144" viewBox="0 0 204 144" fill="none" xmlns="http://www.w3.org/2000/svg">
<g clip-path="url(#clip0_7037_75500)">
<path d="M180.2 75.2198C180.62 72.9698 180.86 70.6598 180.86 68.2898C180.86 47.4798 163.99 30.6198 143.19 30.6198C135.44 30.6198 128.24 32.9698 122.25 36.9798C114.64 18.5098 96.48 5.50977 75.27 5.50977C47.21 5.50977 24.47 28.2498 24.47 56.3098C24.47 56.9298 24.49 57.5498 24.52 58.1698C10.66 62.1098 0.5 74.8498 0.5 89.9698C0.5 106.7 12.92 120.49 29.04 122.72V123.07H178.58C191.82 123.07 202.55 112.34 202.55 99.0998C202.55 85.8598 192.68 76.0498 180.2 75.2098V75.2198Z" fill="#263238" stroke="#263238" stroke-linecap="round" stroke-linejoin="round"/>
<path d="M180.2 70.72C180.62 68.47 180.86 66.16 180.86 63.79C180.86 42.98 163.99 26.12 143.19 26.12C135.44 26.12 128.24 28.47 122.25 32.48C114.65 14 96.48 1 75.27 1C47.22 1 24.47 23.74 24.47 51.8C24.47 52.42 24.49 53.04 24.52 53.66C10.66 57.61 0.5 70.35 0.5 85.47C0.5 102.2 12.92 115.99 29.04 118.22V118.57H178.58C191.82 118.57 202.55 107.84 202.55 94.6C202.55 81.36 192.68 71.55 180.2 70.71V70.72Z" fill="#4361EE" stroke="#263238" stroke-linecap="round" stroke-linejoin="round"/>
<path d="M128.67 92.65L102.33 59.5L76 92.65H86.3V142.56H118.37V92.65H128.67Z" fill="white" stroke="#263238" stroke-linecap="round" stroke-linejoin="round"/>
</g>
<defs>
<clipPath id="clip0_7037_75500">
<rect width="204" height="143" fill="white" transform="translate(0 0.5)"/>
</clipPath>
</defs>
</svg>
